/* XPM */
static char * grow_xpm[] = {
"13 21 4 1",
" 	c None",
".	c #FFFFFF",
"+	c #000000",
"@	c #777575",
"      .      ",
"     .+@     ",
"    ..+@@    ",
"    .+++@    ",
"   ..+++@@   ",
"   .+++++@   ",
"  ..+++++@@  ",
"  .+++++++@  ",
"  .+++++++@  ",
"             ",
"+++++++++++++",
"  ........   ",
"  .+++++++@  ",
"  .+++++++@  ",
"  ..+++++@@  ",
"   .+++++@   ",
"   ..+++@@   ",
"    .+++@    ",
"    ..+@@    ",
"     .+@     ",
"             "};
